<svg xmlns="http://www.w3.org/2000/svg" xml:space="preserve" width="210mm" height="297mm" version="1.1" style="shape-rendering:geometricPrecision; text-rendering:geometricPrecision; image-rendering:optimizeQuality; fill-rule:evenodd; clip-rule:evenodd"
viewBox="0 0 21000 29700"
 xmlns:xlink="http://www.w3.org/1999/xlink"
 xmlns:xodm="http://www.corel.com/coreldraw/odm/2003">
 <defs>
  <style type="text/css">
   <![CDATA[
    .str0 {stroke:black;stroke-width:20;stroke-miterlimit:22.9256}
    .fil3 {fill:black}
    .fil0 {fill:#131313}
    .fil2 {fill:#EC1F27}
    .fil1 {fill:#FCD603}
   ]]>
  </style>
 </defs>
 <g id="Warstwa_x0020_2">
  <metadata id="CorelCorpID_0Corel-Layer"/>
  <g id="_1893363416720">
   <path class="fil0" d="M3279.74 8780.6c405.84,-146.16 1662.45,-187.26 2257.56,-300.84 1217.91,-232.44 2611.8,-762.84 3678.72,-1409.55 2386.35,-1446.42 641.7,-1384.41 2977.44,21.24 3002.1,1806.66 5219.85,1399.44 5901.21,1699.26 321.69,1010.76 -67.17,3933.99 -311.97,5053.77 -607.62,2779.59 -1896.24,5288.22 -3920.85,7293.42 -467.43,462.96 -2643.66,2344.59 -3197.7,2340.48 -1121.13,-8.31 -4659.36,-3705.81 -5598.48,-5555.25 -673.98,-1327.35 -1209.06,-2629.11 -1508.19,-4097.25 -199.56,-979.5 -650.76,-4268.34 -277.74,-5045.28zm-798.3 -897.93c-460.65,1007.55 -86.01,4617.09 153.99,5817.57 532.35,2663.1 1351.29,4393.26 2880.15,6525.93 513.69,716.61 982.29,1056.96 1512.66,1664.61 498.51,571.11 2938.23,2568.15 3638.58,2587.92 707.55,19.98 3117.12,-2074.86 3703.38,-2621.13 3657.15,-3407.64 5256.57,-9133.92 4548.15,-13991.91 -2013.06,-243.33 -2811.6,-24.33 -4876.56,-823.59 -1971.39,-763.02 -2801.94,-1930.47 -3380.31,-2269.8 -958.53,586.8 -880.2,1227.06 -3379.8,2264.37 -2401.62,996.63 -3869.61,603.84 -4800.24,846.03z"/>
   <path class="fil1" d="M4035.59 9491.78c573.6,-144.69 1364.79,-150.36 2019.09,-285.09 1922.43,-395.91 3097.86,-1075.35 4616.01,-2200.41 409.56,224.7 901.29,683.04 1385.91,964.02 2140.47,1241.1 3033.39,1136.07 5262.54,1502.76 322.44,3691.83 -1131.63,8490.48 -3918.9,10991.82 -440.46,395.28 -2187.78,2073.12 -2729.25,2049.75 -478.98,-20.67 -2417.19,-1684.14 -2815.47,-2089.23 -2743.56,-2790.57 -4157.97,-7062.27 -3819.93,-10933.62zm-755.85 -711.18c-373.02,776.94 78.18,4065.78 277.74,5045.28 299.13,1468.14 834.21,2769.9 1508.19,4097.25 939.12,1849.44 4477.35,5546.94 5598.48,5555.25 554.04,4.11 2730.27,-1877.52 3197.7,-2340.48 2024.61,-2005.2 3313.23,-4513.83 3920.85,-7293.42 244.8,-1119.78 633.66,-4043.01 311.97,-5053.77 -681.36,-299.82 -2899.11,107.4 -5901.21,-1699.26 -2335.74,-1405.65 -591.09,-1467.66 -2977.44,-21.24 -1066.92,646.71 -2460.81,1177.11 -3678.72,1409.55 -595.11,113.58 -1851.72,154.68 -2257.56,300.84z"/>
  </g>
 </g>
 <g id="Warstwa_x0020_1">
  <metadata id="CorelCorpID_1Corel-Layer"/>
  <g id="_1893363408080">
   <path class="fil2" d="M8419.46 10537.64c-972.6,-39.55 -1708.58,618.79 -1802.69,1496.09 -56.99,531.33 133.99,948.17 382.36,1255.14 141.76,175.22 645.08,610.99 1051.57,568.59 173.64,127.99 618.19,-0.69 807.17,-60.06 34.55,45.37 19.03,12.25 46.49,89.16l192.06 1493.19c-8.07,141.53 -55.42,58.89 -188.59,162.44 -87.75,68.23 -100.71,114.19 -34.54,206.6 151.43,57.57 503.96,-132.13 680.12,-182.98 246.78,-71.23 475.36,-122.85 734.77,-156.72 629.61,-82.21 989.52,-24.25 1598.16,56.64 267.43,41.95 901.85,314.53 1057.77,291.46 110.22,-209.99 -56.85,-217.68 -229.3,-320.5l215.03 -1598.33 37.39 -300.66c264.78,3.51 621.29,-34.34 796.6,-183.74 725.13,-243.36 1340.12,-1588.82 509.56,-2547.01 -452.31,-521.81 -1006.48,-613.93 -1688.92,-512.16l67.15 279.35c22.29,171.43 84.9,456.91 -163.07,443.67 -202.05,-10.79 -168.91,-223 -208.53,-397.11 -139.86,-631.76 -552.18,-1081.42 -1078.33,-1290.1 -316.9,-125.69 -676.23,-161.06 -1031.43,-80.26 -238.3,54.21 -679.45,250.72 -754.97,400.74 -164.02,85.2 -377.68,384.37 -468.15,614.02 194.24,97.15 327.11,131.45 511.47,267.47 68.87,50.81 185.04,123.05 203.88,203.78 26.06,111.74 -48.2,208.04 -136.05,227.71 -221.57,49.62 -307.36,-343.83 -1106.98,-426.42zm4012.62 -594.6c372.08,-29.37 507.04,-117.09 938.14,-44.38 287.58,48.5 545.89,163.26 755.92,298.19 1601.85,1029.19 959.82,3507.94 -831.09,3693.17l-175.92 1330.95c17.69,69.01 456.02,272.15 108.27,781.83 111.96,81.26 324.54,257.17 396.88,382.9 16.86,148.17 -46.76,270.82 -210.92,240.56 -68.91,-12.7 -205.72,-156.82 -260.35,-203.69 -1053.02,-903.46 -3339.43,-891.88 -4384.44,-71.83 -100.88,79.16 -158.87,145.98 -242.14,218.6 -142.25,124.07 -214.17,56.22 -316.4,-38.81 -27.45,-295.82 218.43,-358.45 382.42,-523.91 -225.31,-408.08 -167.11,-505.43 104.01,-785.25l-125.56 -958.2c-200.26,-38.04 -461.27,64.28 -947.71,-107.79 -263.27,-93.12 -562.31,-267.08 -701.9,-409.62 -219.51,-224.16 -332.85,-341.24 -476.68,-633.45 -273,-554.61 -284.6,-1243.95 -1.33,-1794.16 69.49,-134.98 123.92,-225.18 204.28,-337.9 208.56,-292.56 592.36,-577.89 971.16,-707.92 360.05,-123.59 574.5,-106.71 959.78,-95.94 448.77,-1211.26 2064.33,-1814.9 3287.92,-888.18 179.4,135.87 111.57,106.72 211.31,194.9 167.1,147.74 211.1,268.3 354.35,459.93z"/>
   <path class="fil3" d="M12756.43 17570.35l-184.06 -134.22c-1099.28,-636.09 -1297.2,84.9 -1661.41,-533.05l-22.29 -35.55c-363.94,527.05 -412.8,213.93 -957.27,292.34 -369.75,53.25 -688.97,244.25 -924.93,407.28l-493.29 423.23c-750.99,571.31 -1582.95,106.83 -1813.7,-502.67 -196.33,-518.55 -35.74,-1174.33 479.34,-1240.36 786.36,-100.81 1024.05,849.91 792.92,940.27 -32.89,-65.94 -4.43,-764.1 -629.87,-748.41 -866.46,21.74 -289.04,1684.22 590.73,1295.77 168.04,-74.2 678.73,-637.83 708.99,-688.13 53.8,-33.01 282.33,-234.2 487.74,-361.73 362.96,-225.34 824.86,-389.81 1273.17,-379.28 320.61,7.54 361.48,117.48 486.17,321.02 160.09,-209.85 143.74,-324.73 540.7,-321.33 1000.91,8.56 1630.91,720.23 1766.52,785.51 47.27,88.32 468.58,585.96 709.06,664.89 858.12,281.61 1363.05,-1265.31 557.32,-1315.71 -640.08,-40.05 -618.15,683.46 -653.91,748.15 -232.28,-101.5 11.86,-1015.2 763.82,-944.56 529.93,49.77 714.91,697.75 515.54,1226.74 -145.82,386.93 -567.37,789.52 -1112.38,784.01 -631.29,-6.38 -847.64,-470.51 -1218.91,-684.21z"/>
   <path class="fil3" d="M12701.47 18962.29c113.14,163.32 64.12,538.04 64.13,781.01 0.01,253.13 84.69,645.74 -242.29,564.42 -350.23,-87.11 -859.15,-375.36 -1201.41,-430.58 -147.32,148.18 -194.85,231.74 -487.81,227.46 -261.95,-3.83 -329.79,-88.49 -459.89,-230.9 -273.7,70 -1160.49,495.62 -1370.34,426.34 -125.62,-155.12 -66.87,-541.46 -66.88,-773.36 -0.02,-230.22 -80.63,-642.02 223.81,-574.65 322.23,71.31 999.84,373.89 1267.56,383.99 265.25,-253.84 680.81,-219.26 830.6,9.5 344.19,-39.41 1172.59,-448.3 1442.52,-383.23z"/>
   <path class="fil2" d="M9777.42 18579.89c-249.62,-90.77 -746.78,-334.36 -729.57,-567.84 7.62,-103.23 132.86,-288.55 393.72,-43.25 557.43,524.17 2321.4,629.29 2995.7,-62.22 143.4,-147.07 357.79,-67.65 338.97,130.84 -39.96,421.35 -1625.49,1041.85 -2998.82,542.47z"/>
   <path class="fil2" d="M12292.14 15071.93c149.62,43.3 238.23,28.17 217.77,203.39 -118.23,53.26 -93.46,9.98 -221.01,11.66 -165.57,-154.52 -1188.64,-245.6 -1481.46,-246.28 -264.43,-0.61 -528.63,27.02 -779.83,77.38 -172.07,34.49 -536.15,200.93 -640.85,143.02 -247.03,-274.36 1229.93,-404.49 1339.44,-406.77 528.83,-10.99 1087.3,76.95 1565.94,217.6z"/>
   <path class="fil2" d="M12748.79 13290.79c-164.05,54.18 -155.53,-24.02 -245.3,-117.61 -341.05,-355.53 -871.21,-566.8 -1367.53,-634.42 -178.05,-24.25 -652.16,-7.34 -752.68,-58.77 -33.64,-187.16 101.44,-157.83 260.94,-158.55 134.93,-0.62 277.94,4.41 410.83,18.48 260.34,27.56 509.44,83.15 734.27,166.7 302.21,112.31 591.87,279.13 802.44,496.96 90.36,93.47 203.07,119.56 157.03,287.21z"/>
   <path class="fil2" d="M11353.22 12926.13c-216.3,50.08 -990.99,-342.23 -2151.81,444.61 -201.55,136.61 -151.67,144.5 -279.86,107.42 -62.64,-158.08 217.22,-297.32 412.67,-406.84 185.83,-104.12 397.22,-210.11 618.85,-273.86 392.17,-112.82 779.09,-163.34 1191.3,-77.08 180.99,37.87 248.44,38.2 208.85,205.75z"/>
  </g>
  <circle class="fil1 str0" cx="10849.71" cy="19631.64" r="207.01"/>
 </g>
</svg>
